<svg xmlns="http://www.w3.org/2000/svg" width="1440" height="1260" viewBox="0 0 1440 1260">
  <rect width="1440" height="1260" fill="#f4f1ea"/>
  <rect x="36" y="28" width="1368" height="80" rx="20" fill="#1f3a5f"/>
  <text x="70" y="74" font-family="Arial, sans-serif" font-size="28" font-weight="700" fill="#ffffff">Project Control Dashboard</text>
  <text x="70" y="96" font-family="Arial, sans-serif" font-size="14" fill="#cfe0f3">Main page sketch based on CRS/SRS</text>
  <text x="430" y="74" font-family="Arial, sans-serif" font-size="16" font-weight="700" fill="#dbeafe">Dashboard</text>
  <text x="540" y="74" font-family="Arial, sans-serif" font-size="16" font-weight="700" fill="#dbeafe">Projects</text>
  <text x="630" y="74" font-family="Arial, sans-serif" font-size="16" font-weight="700" fill="#dbeafe">Alerts</text>
  <text x="1000" y="74" font-family="Arial, sans-serif" font-size="14" fill="#cfe0f3">프로젝트 검색</text>
  <rect x="1090" y="48" width="250" height="34" rx="10" fill="#ffffff"/>
  <text x="1110" y="70" font-family="Arial, sans-serif" font-size="14" fill="#64748b">Alpha 리뉴얼 검색...</text>

  <rect x="36" y="126" width="1368" height="94" rx="18" fill="#ffffff" stroke="#d9d2c3"/>
  <text x="62" y="156" font-family="Arial, sans-serif" font-size="15" font-weight="700" fill="#475569">시계열 필터</text>
  <rect x="56" y="166" width="140" height="34" rx="10" fill="#eef2f7"/>
  <rect x="206" y="166" width="140" height="34" rx="10" fill="#eef2f7"/>
  <text x="82" y="188" font-family="Arial, sans-serif" font-size="14" fill="#334155">년도: 2026</text>
  <text x="236" y="188" font-family="Arial, sans-serif" font-size="14" fill="#334155">월: 03</text>
  <text x="410" y="156" font-family="Arial, sans-serif" font-size="15" font-weight="700" fill="#475569">조직 필터</text>
  <rect x="406" y="166" width="140" height="34" rx="10" fill="#eef2f7"/>
  <rect x="556" y="166" width="140" height="34" rx="10" fill="#eef2f7"/>
  <rect x="706" y="166" width="140" height="34" rx="10" fill="#eef2f7"/>
  <text x="438" y="188" font-family="Arial, sans-serif" font-size="14" fill="#334155">팀: Platform</text>
  <text x="586" y="188" font-family="Arial, sans-serif" font-size="14" fill="#334155">그룹: A</text>
  <text x="738" y="188" font-family="Arial, sans-serif" font-size="14" fill="#334155">파트: Backend</text>
  <text x="932" y="156" font-family="Arial, sans-serif" font-size="15" font-weight="700" fill="#475569">빠른 이동</text>
  <rect x="926" y="166" width="220" height="34" rx="10" fill="#eef2f7"/>
  <text x="948" y="188" font-family="Arial, sans-serif" font-size="14" fill="#334155">검색 결과로 상세 이동</text>
  <rect x="1170" y="166" width="170" height="34" rx="10" fill="#1f3a5f"/>
  <text x="1210" y="188" font-family="Arial, sans-serif" font-size="14" font-weight="700" fill="#ffffff">필터 적용</text>

  <rect x="36" y="238" width="920" height="72" rx="18" fill="#ffffff" stroke="#d9d2c3"/>
  <rect x="56" y="254" width="150" height="40" rx="12" fill="#e7dfd1"/>
  <rect x="216" y="254" width="170" height="40" rx="12" fill="#1f3a5f"/>
  <rect x="396" y="254" width="150" height="40" rx="12" fill="#e7dfd1"/>
  <rect x="556" y="254" width="190" height="40" rx="12" fill="#e7dfd1"/>
  <text x="92" y="280" font-family="Arial, sans-serif" font-size="16" font-weight="700" fill="#4b5563">프로젝트 요약</text>
  <text x="248" y="280" font-family="Arial, sans-serif" font-size="16" font-weight="700" fill="#ffffff">프로젝트별 현황</text>
  <text x="433" y="280" font-family="Arial, sans-serif" font-size="16" font-weight="700" fill="#4b5563">테스트 현황</text>
  <text x="588" y="280" font-family="Arial, sans-serif" font-size="16" font-weight="700" fill="#4b5563">소스코드 품질</text>

  <rect x="980" y="238" width="424" height="220" rx="18" fill="#fff8e7" stroke="#d6b25e" stroke-width="2"/>
  <text x="1010" y="278" font-family="Arial, sans-serif" font-size="22" font-weight="700" fill="#8a5a00">경고 및 알림</text>
  <rect x="1008" y="298" width="368" height="42" rx="10" fill="#ffffff" stroke="#ead7a3"/>
  <rect x="1008" y="350" width="368" height="42" rx="10" fill="#ffffff" stroke="#ead7a3"/>
  <rect x="1008" y="402" width="368" height="42" rx="10" fill="#ffffff" stroke="#ead7a3"/>
  <text x="1032" y="324" font-family="Arial, sans-serif" font-size="16" fill="#3f3f46">배포 승인 대기 2건</text>
  <text x="1032" y="376" font-family="Arial, sans-serif" font-size="16" fill="#3f3f46">테스트 실패 프로젝트 1건</text>
  <text x="1032" y="428" font-family="Arial, sans-serif" font-size="16" fill="#3f3f46">품질 저하 경고 3건</text>

  <rect x="36" y="332" width="920" height="494" rx="22" fill="#ffffff" stroke="#d9d2c3"/>
  <text x="68" y="376" font-family="Arial, sans-serif" font-size="24" font-weight="700" fill="#1f2937">프로젝트별 현황 탭</text>
  <text x="68" y="404" font-family="Arial, sans-serif" font-size="15" fill="#64748b">이 탭에서 KPI 12개 전체 표시</text>
  <rect x="66" y="426" width="100" height="48" rx="12" fill="#dce7f5"/>
  <rect x="176" y="426" width="100" height="48" rx="12" fill="#dce7f5"/>
  <rect x="286" y="426" width="100" height="48" rx="12" fill="#dce7f5"/>
  <rect x="396" y="426" width="100" height="48" rx="12" fill="#dce7f5"/>
  <rect x="506" y="426" width="100" height="48" rx="12" fill="#dce7f5"/>
  <rect x="616" y="426" width="100" height="48" rx="12" fill="#dce7f5"/>
  <rect x="726" y="426" width="100" height="48" rx="12" fill="#dff2e1"/>
  <rect x="836" y="426" width="100" height="48" rx="12" fill="#dff2e1"/>
  <rect x="66" y="484" width="100" height="48" rx="12" fill="#dff2e1"/>
  <rect x="176" y="484" width="100" height="48" rx="12" fill="#f5e4d8"/>
  <rect x="286" y="484" width="100" height="48" rx="12" fill="#f5e4d8"/>
  <rect x="396" y="484" width="100" height="48" rx="12" fill="#f5e4d8"/>
  <text x="92" y="456" font-family="Arial, sans-serif" font-size="14" font-weight="700" fill="#1f3a5f">KPI-01</text>
  <text x="202" y="456" font-family="Arial, sans-serif" font-size="14" font-weight="700" fill="#1f3a5f">KPI-02</text>
  <text x="312" y="456" font-family="Arial, sans-serif" font-size="14" font-weight="700" fill="#1f3a5f">KPI-03</text>
  <text x="422" y="456" font-family="Arial, sans-serif" font-size="14" font-weight="700" fill="#1f3a5f">KPI-04</text>
  <text x="532" y="456" font-family="Arial, sans-serif" font-size="14" font-weight="700" fill="#1f3a5f">KPI-05</text>
  <text x="642" y="456" font-family="Arial, sans-serif" font-size="14" font-weight="700" fill="#1f3a5f">KPI-06</text>
  <text x="752" y="456" font-family="Arial, sans-serif" font-size="14" font-weight="700" fill="#22543d">KPI-07</text>
  <text x="862" y="456" font-family="Arial, sans-serif" font-size="14" font-weight="700" fill="#22543d">KPI-08</text>
  <text x="92" y="514" font-family="Arial, sans-serif" font-size="14" font-weight="700" fill="#22543d">KPI-09</text>
  <text x="202" y="514" font-family="Arial, sans-serif" font-size="14" font-weight="700" fill="#9a3412">KPI-10</text>
  <text x="312" y="514" font-family="Arial, sans-serif" font-size="14" font-weight="700" fill="#9a3412">KPI-11</text>
  <text x="422" y="514" font-family="Arial, sans-serif" font-size="14" font-weight="700" fill="#9a3412">KPI-12</text>
  <rect x="66" y="560" width="860" height="236" rx="18" fill="#f9fafb" stroke="#d1d5db"/>
  <text x="88" y="596" font-family="Arial, sans-serif" font-size="18" font-weight="700" fill="#374151">프로젝트 현황 목록</text>
  <line x1="88" y1="622" x2="902" y2="622" stroke="#d1d5db"/>
  <text x="88" y="652" font-family="Arial, sans-serif" font-size="15" fill="#4b5563">Alpha 리뉴얼</text>
  <text x="360" y="652" font-family="Arial, sans-serif" font-size="15" fill="#4b5563">진행률 72%</text>
  <text x="560" y="652" font-family="Arial, sans-serif" font-size="15" fill="#4b5563">테스트 정상</text>
  <text x="760" y="652" font-family="Arial, sans-serif" font-size="15" fill="#4b5563">품질 A</text>
  <text x="88" y="682" font-family="Arial, sans-serif" font-size="15" fill="#4b5563">Beta 운영개선</text>
  <text x="360" y="682" font-family="Arial, sans-serif" font-size="15" fill="#4b5563">진행률 54%</text>
  <text x="560" y="682" font-family="Arial, sans-serif" font-size="15" fill="#4b5563">테스트 실패</text>
  <text x="760" y="682" font-family="Arial, sans-serif" font-size="15" fill="#b45309">품질 주의</text>
  <text x="88" y="732" font-family="Arial, sans-serif" font-size="16" font-weight="700" fill="#374151">탭별 지표 구성 안내</text>
  <text x="88" y="760" font-family="Arial, sans-serif" font-size="14" fill="#4b5563">프로젝트별 현황: KPI 12개</text>
  <text x="320" y="760" font-family="Arial, sans-serif" font-size="14" fill="#4b5563">테스트 현황: 지표 7종</text>
  <text x="540" y="760" font-family="Arial, sans-serif" font-size="14" fill="#4b5563">소스코드 품질: 지표 4종</text>

  <rect x="980" y="482" width="424" height="344" rx="18" fill="#ffffff" stroke="#d9d2c3"/>
  <text x="1010" y="522" font-family="Arial, sans-serif" font-size="22" font-weight="700" fill="#1f2937">탭 예시 요약</text>
  <rect x="1008" y="544" width="368" height="76" rx="12" fill="#eef4fb"/>
  <rect x="1008" y="632" width="368" height="76" rx="12" fill="#eef4fb"/>
  <rect x="1008" y="720" width="368" height="76" rx="12" fill="#eef4fb"/>
  <text x="1030" y="574" font-family="Arial, sans-serif" font-size="16" font-weight="700" fill="#334155">프로젝트별 현황</text>
  <text x="1030" y="600" font-family="Arial, sans-serif" font-size="14" fill="#334155">KPI 12개 전체 표시</text>
  <text x="1030" y="662" font-family="Arial, sans-serif" font-size="16" font-weight="700" fill="#334155">테스트 현황</text>
  <text x="1030" y="688" font-family="Arial, sans-serif" font-size="14" fill="#334155">테스트 지표 7종 표시</text>
  <text x="1030" y="750" font-family="Arial, sans-serif" font-size="16" font-weight="700" fill="#334155">소스코드 품질</text>
  <text x="1030" y="776" font-family="Arial, sans-serif" font-size="14" fill="#334155">품질 지표 4종 표시</text>

  <rect x="36" y="852" width="1368" height="180" rx="22" fill="#ffffff" stroke="#d9d2c3"/>
  <text x="68" y="898" font-family="Arial, sans-serif" font-size="24" font-weight="700" fill="#1f2937">프로젝트 목록 화면 스케치</text>
  <rect x="68" y="920" width="1260" height="78" rx="16" fill="#f9fafb" stroke="#d1d5db"/>
  <text x="92" y="952" font-family="Arial, sans-serif" font-size="16" font-weight="700" fill="#374151">프로젝트 목록</text>
  <text x="92" y="978" font-family="Arial, sans-serif" font-size="14" fill="#4b5563">Alpha 리뉴얼 / 2026-03 / Platform / A / Backend / 상세보기</text>
  <text x="960" y="952" font-family="Arial, sans-serif" font-size="14" fill="#64748b">검색 + 시계열 필터 + 조직 필터 적용</text>

  <rect x="36" y="1056" width="1368" height="168" rx="22" fill="#ffffff" stroke="#d9d2c3"/>
  <text x="68" y="1102" font-family="Arial, sans-serif" font-size="24" font-weight="700" fill="#1f2937">프로젝트 상세 화면 확장 영역</text>
  <text x="68" y="1134" font-family="Arial, sans-serif" font-size="16" fill="#6b7280">향후 KPI, 테스트, 품질 지표별 drill-down과 상세 차트 영역 배치 가능</text>
  <rect x="70" y="1152" width="400" height="52" rx="16" fill="#f6efe5" stroke="#e5d4bb" stroke-dasharray="8 6"/>
  <rect x="500" y="1152" width="400" height="52" rx="16" fill="#f6efe5" stroke="#e5d4bb" stroke-dasharray="8 6"/>
  <rect x="930" y="1152" width="440" height="52" rx="16" fill="#f6efe5" stroke="#e5d4bb" stroke-dasharray="8 6"/>
  <text x="160" y="1185" font-family="Arial, sans-serif" font-size="20" font-weight="700" fill="#9a7b4f">KPI 상세</text>
  <text x="580" y="1185" font-family="Arial, sans-serif" font-size="20" font-weight="700" fill="#9a7b4f">테스트 상세</text>
  <text x="1080" y="1185" font-family="Arial, sans-serif" font-size="20" font-weight="700" fill="#9a7b4f">품질 상세</text>
</svg>
